<?xml version="1.0" encoding="UTF-8"?>
<svg width="30px" height="29px" viewBox="0 0 30 29" version="1.1" xmlns="http://www.w3.org/2000/svg" xmlns:xlink="http://www.w3.org/1999/xlink">
    <title>F5807DE5-0183-4424-89C4-D54F59CA6E22</title>
    <g id="Users" stroke="none" stroke-width="1" fill="none" fill-rule="evenodd" stroke-linecap="round">
        <g id="User-List-Collapsed-Light" transform="translate(-30.000000, -28.000000)" stroke="#0293FF" stroke-width="3">
            <g id="Logo" transform="translate(32.444444, 30.000000)">
                <path d="M17.2950272,0 C22.1981935,1.81655843 25.6944444,6.54998253 25.6944444,12.1030233 C25.6944444,19.2259711 19.9425133,25 12.8470447,25 C5.75193113,25 0,19.2259711 0,12.1030233 C0,6.7609906 3.23546126,2.17762459 7.84641519,0.219562443 C8.00903151,0.150592747 8.17324559,0.084830944 8.33941249,0.0224552499" id="Stroke-1"></path>
                <path d="M17.3611111,11.8054683 C17.3611111,14.106587 15.4956504,15.9722222 13.1943572,15.9722222 C10.893413,15.9722222 9.02777778,14.106587 9.02777778,11.8054683 C9.02777778,10.0795857 10.0772303,8.59883697 11.5726347,7.9663739 C12.0711028,7.75543657 12.6191211,7.63888889 13.1943572,7.63888889 C13.6683992,7.63888889 14.1239471,7.71809944 14.5484388,7.86378403 C16.1849915,8.42593465 17.3611111,9.9782171 17.3611111,11.8054683 Z" id="Stroke-3"></path>
                <line x1="13.1944444" y1="25" x2="13.1944444" y2="17.3611111" id="Stroke-5"></line>
            </g>
        </g>
    </g>
</svg>