<?xml version="1.0" encoding="UTF-8"?>
<svg width="24px" height="24px" viewBox="0 0 24 24" version="1.1" xmlns="http://www.w3.org/2000/svg" xmlns:xlink="http://www.w3.org/1999/xlink">
    <title>6D3FDAEF-78F6-49C7-83A3-5305624C1355</title>
    <defs>
        <filter color-interpolation-filters="auto" id="filter-1">
            <feColorMatrix in="SourceGraphic" type="matrix" values="0 0 0 0 0.007843 0 0 0 0 0.576471 0 0 0 0 1.000000 0 0 0 1.000000 0"></feColorMatrix>
        </filter>
        <path d="M15,22 C14.6,22 14.2,21.7 14.1,21.3 L9,6.2 L6.9,12.4 C6.8,12.7 6.4,13 6,13 L2,13 C1.4,13 1,12.6 1,12 C1,11.4 1.4,11 2,11 L5.3,11 L8.1,2.7 C8.2,2.3 8.6,2 9,2 C9.4,2 9.8,2.3 9.9,2.7 L15,17.8 L17.1,11.6 C17.2,11.2 17.6,10.9 18,10.9 L22,10.9 C22.6,10.9 23,11.3 23,11.9 C23,12.5 22.6,12.9 22,12.9 L18.7,12.9 L15.9,21.2 C15.8,21.7 15.4,22 15,22 Z" id="path-2"></path>
    </defs>
    <g id="Users" stroke="none" stroke-width="1" fill="none" fill-rule="evenodd">
        <g id="User-List-Collapsed-Light" transform="translate(-32.000000, -266.000000)">
            <g id="Nav-Drawer/_Collapsed" transform="translate(16.000000, 110.000000)">
                <g id="1ï¸âƒ£-Line-item-Copy-3" transform="translate(0.000000, 144.000000)">
                    <g id="ðŸ“-Icon" transform="translate(16.000000, 12.000000)" filter="url(#filter-1)">
                        <g>
                            <mask id="mask-3" fill="white">
                                <use xlink:href="#path-2"></use>
                            </mask>
                            <use id="Mask" fill="#000000" fill-rule="nonzero" xlink:href="#path-2"></use>
                            <g id="Icon-Color" mask="url(#mask-3)" fill="#000000">
                                <rect id="Shape" x="0" y="0" width="24" height="24"></rect>
                            </g>
                        </g>
                    </g>
                </g>
            </g>
        </g>
    </g>
</svg>