<?xml version="1.0" encoding="UTF-8"?>
<svg width="24px" height="24px" viewBox="0 0 24 24" version="1.1" xmlns="http://www.w3.org/2000/svg" xmlns:xlink="http://www.w3.org/1999/xlink">
    <title>2900565F-D31B-4230-8A59-97E76400025C</title>
    <defs>
        <filter color-interpolation-filters="auto" id="filter-1">
            <feColorMatrix in="SourceGraphic" type="matrix" values="0 0 0 0 0.007843 0 0 0 0 0.576471 0 0 0 0 1.000000 0 0 0 1.000000 0"></feColorMatrix>
        </filter>
        <path d="M10,2 L3,2 C2.4,2 2,2.4 2,3 L2,10 C2,10.6 2.4,11 3,11 L10,11 C10.6,11 11,10.6 11,10 L11,3 C11,2.4 10.6,2 10,2 Z M9,9 L4,9 L4,4 L9,4 L9,9 Z M21,2 L14,2 C13.4,2 13,2.4 13,3 L13,10 C13,10.6 13.4,11 14,11 L21,11 C21.6,11 22,10.6 22,10 L22,3 C22,2.4 21.6,2 21,2 Z M20,9 L15,9 L15,4 L20,4 L20,9 Z M21,13 L14,13 C13.4,13 13,13.4 13,14 L13,21 C13,21.6 13.4,22 14,22 L21,22 C21.6,22 22,21.6 22,21 L22,14 C22,13.4 21.6,13 21,13 Z M20,20 L15,20 L15,15 L20,15 L20,20 Z M10,13 L3,13 C2.4,13 2,13.4 2,14 L2,21 C2,21.6 2.4,22 3,22 L10,22 C10.6,22 11,21.6 11,21 L11,14 C11,13.4 10.6,13 10,13 Z M9,20 L4,20 L4,15 L9,15 L9,20 Z" id="path-2"></path>
    </defs>
    <g id="Users" stroke="none" stroke-width="1" fill="none" fill-rule="evenodd">
        <g id="User-List-Collapsed-Light" transform="translate(-32.000000, -870.000000)">
            <g id="Nav-Drawer/_Collapsed" transform="translate(16.000000, 110.000000)">
                <g id="1ï¸âƒ£-Line-item-Copy-4" transform="translate(0.000000, 748.000000)">
                    <g id="ðŸ“-Icon" transform="translate(16.000000, 12.000000)" filter="url(#filter-1)">
                        <g>
                            <mask id="mask-3" fill="white">
                                <use xlink:href="#path-2"></use>
                            </mask>
                            <use id="Mask" fill="#000000" fill-rule="nonzero" xlink:href="#path-2"></use>
                            <g id="Icon-Color" mask="url(#mask-3)" fill="#000000">
                                <rect id="Shape" x="0" y="0" width="24" height="24"></rect>
                            </g>
                        </g>
                    </g>
                </g>
            </g>
        </g>
    </g>
</svg>